<svg width="15" height="15" viewBox="0 0 15 15" fill="none" xmlns="http://www.w3.org/2000/svg">
<g clip-path="url(#clip0_337_927)">
<path d="M14.9008 1.59224C14.9008 1.38149 14.8204 1.17091 14.6595 1.01004C14.3382 0.688486 13.8169 0.688486 13.4955 1.01004L7.49158 7.01395L1.48767 1.01004C1.16611 0.688486 0.644837 0.688486 0.323443 1.01004C0.00204901 1.3316 0.00204901 1.85271 0.323443 2.17427L6.90938 8.76021C7.06382 8.91465 7.27309 9.00142 7.49158 9.00142C7.71007 9.00142 7.91933 8.91481 8.07361 8.76021L14.6595 2.17427C14.8202 2.01358 14.9008 1.80283 14.9008 1.59224Z" fill="white"/>
<path d="M14.9008 6.80518C14.9008 6.59443 14.8205 6.38384 14.6596 6.22298C14.3382 5.90142 13.8169 5.90142 13.4955 6.22298L7.49164 12.2267L1.48773 6.22298C1.16617 5.90142 0.644897 5.90142 0.323503 6.22298C0.00210936 6.5447 0.00227401 7.06582 0.323503 7.38721L6.90944 13.973C7.231 14.2945 7.75228 14.2945 8.07367 13.973L14.6596 7.38721C14.8203 7.22651 14.9008 7.01593 14.9008 6.80518Z" fill="white"/>
</g>
<defs>
<clipPath id="clip0_337_927">
<rect width="15" height="15" fill="white"/>
</clipPath>
</defs>
</svg>
