<svg width="159" height="159" viewBox="0 0 159 159" fill="none" xmlns="http://www.w3.org/2000/svg">
<path d="M157.915 11.6943C157.948 11.4448 157.95 11.1969 157.911 10.9526C157.906 10.9159 157.909 10.881 157.902 10.8444C157.845 10.5599 157.731 10.2911 157.583 10.0381C157.567 10.0101 157.566 9.98047 157.55 9.95255C157.524 9.91066 157.482 9.88972 157.454 9.84957C157.395 9.7658 157.349 9.67156 157.278 9.59476C157.189 9.49703 157.08 9.42547 156.981 9.34345C156.927 9.29981 156.88 9.2492 156.824 9.2108C156.59 9.04849 156.335 8.92458 156.063 8.84604C156.014 8.83208 155.965 8.83033 155.916 8.81986C155.686 8.7675 155.45 8.74831 155.211 8.76052C155.131 8.76401 155.056 8.771 154.976 8.78147C154.908 8.79194 154.838 8.78496 154.77 8.79892L2.93091 42.755C1.86455 42.9941 1.05823 43.8702 0.908136 44.9523C0.759788 46.0343 1.29908 47.0972 2.26072 47.6138L43.3148 69.7107L56.1024 110.48C56.1164 110.524 56.146 110.555 56.1617 110.597C56.1984 110.695 56.2525 110.782 56.3014 110.876C56.4043 111.075 56.523 111.257 56.6696 111.421C56.708 111.465 56.722 111.52 56.7639 111.561C56.8023 111.597 56.8511 111.61 56.8913 111.644C57.0641 111.795 57.2525 111.915 57.4585 112.016C57.5405 112.056 57.6121 112.109 57.6958 112.138C57.9821 112.245 58.2823 112.313 58.5982 112.313C58.6173 112.313 58.6365 112.313 58.6557 112.313C58.9682 112.306 59.2648 112.236 59.5441 112.126C59.6156 112.098 59.675 112.049 59.743 112.016C59.9647 111.906 60.1689 111.774 60.3522 111.606C60.3871 111.575 60.4324 111.564 60.4656 111.529L81.4246 90.2212L121.88 111.997C122.266 112.205 122.693 112.311 123.121 112.311C123.449 112.311 123.781 112.25 124.093 112.124C124.812 111.838 125.367 111.245 125.61 110.508L157.826 12.1708C157.85 12.094 157.852 12.0137 157.869 11.9352C157.889 11.8549 157.904 11.7764 157.915 11.6943ZM136.018 18.3578L45.5173 64.9548L10.9225 46.3328L136.018 18.3578ZM130.582 27.0475L65.122 77.2608C65.1167 77.2643 65.1133 77.2712 65.1098 77.2747C64.9143 77.4266 64.745 77.6133 64.5967 77.8227C64.5652 77.8664 64.5356 77.91 64.5076 77.9554C64.478 78.0043 64.4396 78.0461 64.4117 78.0968C64.3174 78.2713 64.2493 78.4528 64.1987 78.636C64.197 78.6448 64.19 78.6518 64.1883 78.6605L58.3974 100.314L48.6483 69.2325L130.582 27.0475ZM63.6891 100.789L68.3891 83.2104L76.6216 87.6417L63.6891 100.789ZM121.606 105.911L71.5202 78.9519L150.215 18.5864L121.606 105.911Z" fill="#222222"/>
<path d="M23.3874 150.063C22.7242 150.063 22.061 149.812 21.5514 149.311C20.5199 148.297 20.506 146.641 21.52 145.609L46.4634 120.254C47.4774 119.221 49.1354 119.21 50.1652 120.222C51.1966 121.236 51.2106 122.893 50.1966 123.924L25.2549 149.281C24.7418 149.803 24.0646 150.063 23.3874 150.063Z" fill="#222222"/>
<path d="M64.4548 139.785C63.7916 139.785 63.1284 139.534 62.6188 139.033C61.5873 138.019 61.5734 136.363 62.5874 135.331L87.5291 109.978C88.5448 108.946 90.2011 108.934 91.2308 109.946C92.2623 110.96 92.2762 112.617 91.2622 113.648L66.3223 139.003C65.8091 139.523 65.132 139.785 64.4548 139.785Z" fill="#222222"/>
<path d="M15.5945 118.207C14.9313 118.207 14.2681 117.955 13.7584 117.454C12.727 116.44 12.713 114.784 13.727 113.753L31.9564 95.2214C32.9704 94.1899 34.6284 94.1777 35.6581 95.19C36.6896 96.204 36.7035 97.8602 35.6895 98.8917L17.4619 117.423C16.9488 117.945 16.2716 118.207 15.5945 118.207Z" fill="#222222"/>
</svg>
