<svg width="230" height="230" viewBox="0 0 230 230" fill="none" xmlns="http://www.w3.org/2000/svg">
<circle cx="4.39889" cy="4.39889" r="4.39889" fill="#C2C2C2"/>
<circle cx="24.5102" cy="4.39891" r="4.39889" fill="#C2C2C2"/>
<circle cx="44.6186" cy="4.39891" r="4.39889" fill="#C2C2C2"/>
<circle cx="64.727" cy="4.39891" r="4.39889" fill="#C2C2C2"/>
<circle cx="84.8354" cy="4.39891" r="4.39889" fill="#C2C2C2"/>
<circle cx="104.945" cy="4.39891" r="4.39889" fill="#C2C2C2"/>
<circle cx="125.056" cy="4.39891" r="4.39889" fill="#C2C2C2"/>
<circle cx="145.165" cy="4.39891" r="4.39889" fill="#C2C2C2"/>
<circle cx="165.273" cy="4.39891" r="4.39889" fill="#C2C2C2"/>
<circle cx="185.381" cy="4.39891" r="4.39889" fill="#C2C2C2"/>
<circle cx="205.493" cy="4.39891" r="4.39889" fill="#C2C2C2"/>
<circle cx="225.601" cy="4.39891" r="4.39889" fill="#C2C2C2"/>
<circle cx="4.39889" cy="24.5081" r="4.39889" fill="#C2C2C2"/>
<circle cx="24.5102" cy="24.5081" r="4.39889" fill="#C2C2C2"/>
<circle cx="44.6186" cy="24.5081" r="4.39889" fill="#C2C2C2"/>
<circle cx="64.727" cy="24.5081" r="4.39889" fill="#C2C2C2"/>
<circle cx="84.8354" cy="24.5081" r="4.39889" fill="#C2C2C2"/>
<circle cx="104.945" cy="24.5081" r="4.39889" fill="#C2C2C2"/>
<circle cx="125.056" cy="24.5081" r="4.39889" fill="#C2C2C2"/>
<circle cx="145.165" cy="24.5081" r="4.39889" fill="#C2C2C2"/>
<circle cx="165.273" cy="24.5081" r="4.39889" fill="#C2C2C2"/>
<circle cx="185.381" cy="24.5081" r="4.39889" fill="#C2C2C2"/>
<circle cx="205.493" cy="24.5081" r="4.39889" fill="#C2C2C2"/>
<circle cx="225.601" cy="24.5081" r="4.39889" fill="#C2C2C2"/>
<circle cx="4.39889" cy="44.6173" r="4.39889" fill="#C2C2C2"/>
<circle cx="24.5102" cy="44.6173" r="4.39889" fill="#C2C2C2"/>
<circle cx="44.6186" cy="44.6173" r="4.39889" fill="#C2C2C2"/>
<circle cx="64.727" cy="44.6173" r="4.39889" fill="#C2C2C2"/>
<circle cx="84.8354" cy="44.6173" r="4.39889" fill="#C2C2C2"/>
<circle cx="104.945" cy="44.6173" r="4.39889" fill="#C2C2C2"/>
<circle cx="125.056" cy="44.6173" r="4.39889" fill="#C2C2C2"/>
<circle cx="145.165" cy="44.6173" r="4.39889" fill="#C2C2C2"/>
<circle cx="165.273" cy="44.6173" r="4.39889" fill="#C2C2C2"/>
<circle cx="185.381" cy="44.6173" r="4.39889" fill="#C2C2C2"/>
<circle cx="205.493" cy="44.6173" r="4.39889" fill="#C2C2C2"/>
<circle cx="225.601" cy="44.6173" r="4.39889" fill="#C2C2C2"/>
<circle cx="4.39889" cy="185.382" r="4.39889" fill="#C2C2C2"/>
<circle cx="24.5102" cy="185.382" r="4.39889" fill="#C2C2C2"/>
<circle cx="44.6186" cy="185.382" r="4.39889" fill="#C2C2C2"/>
<circle cx="64.727" cy="185.382" r="4.39889" fill="#C2C2C2"/>
<circle cx="84.8354" cy="185.382" r="4.39889" fill="#C2C2C2"/>
<circle cx="104.945" cy="185.382" r="4.39889" fill="#C2C2C2"/>
<circle cx="125.056" cy="185.382" r="4.39889" fill="#C2C2C2"/>
<circle cx="145.165" cy="185.382" r="4.39889" fill="#C2C2C2"/>
<circle cx="165.273" cy="185.382" r="4.39889" fill="#C2C2C2"/>
<circle cx="185.381" cy="185.382" r="4.39889" fill="#C2C2C2"/>
<circle cx="205.493" cy="185.382" r="4.39889" fill="#C2C2C2"/>
<circle cx="225.601" cy="185.382" r="4.39889" fill="#C2C2C2"/>
<circle cx="4.39889" cy="205.491" r="4.39889" fill="#C2C2C2"/>
<circle cx="24.5102" cy="205.491" r="4.39889" fill="#C2C2C2"/>
<circle cx="44.6186" cy="205.491" r="4.39889" fill="#C2C2C2"/>
<circle cx="64.727" cy="205.491" r="4.39889" fill="#C2C2C2"/>
<circle cx="84.8354" cy="205.491" r="4.39889" fill="#C2C2C2"/>
<circle cx="104.945" cy="205.491" r="4.39889" fill="#C2C2C2"/>
<circle cx="125.056" cy="205.491" r="4.39889" fill="#C2C2C2"/>
<circle cx="145.165" cy="205.491" r="4.39889" fill="#C2C2C2"/>
<circle cx="165.273" cy="205.491" r="4.39889" fill="#C2C2C2"/>
<circle cx="185.381" cy="205.491" r="4.39889" fill="#C2C2C2"/>
<circle cx="205.493" cy="205.491" r="4.39889" fill="#C2C2C2"/>
<circle cx="225.601" cy="205.491" r="4.39889" fill="#C2C2C2"/>
<circle cx="4.39889" cy="225.6" r="4.39889" fill="#C2C2C2"/>
<circle cx="24.5102" cy="225.6" r="4.39889" fill="#C2C2C2"/>
<circle cx="44.6186" cy="225.6" r="4.39889" fill="#C2C2C2"/>
<circle cx="64.727" cy="225.6" r="4.39889" fill="#C2C2C2"/>
<circle cx="84.8354" cy="225.6" r="4.39889" fill="#C2C2C2"/>
<circle cx="104.945" cy="225.6" r="4.39889" fill="#C2C2C2"/>
<circle cx="125.056" cy="225.6" r="4.39889" fill="#C2C2C2"/>
<circle cx="145.165" cy="225.6" r="4.39889" fill="#C2C2C2"/>
<circle cx="165.273" cy="225.6" r="4.39889" fill="#C2C2C2"/>
<circle cx="185.381" cy="225.6" r="4.39889" fill="#C2C2C2"/>
<circle cx="205.493" cy="225.6" r="4.39889" fill="#C2C2C2"/>
<circle cx="225.601" cy="225.6" r="4.39889" fill="#C2C2C2"/>
<circle cx="4.39889" cy="65.9835" r="4.39889" fill="#C2C2C2"/>
<circle cx="24.5102" cy="65.9833" r="4.39889" fill="#C2C2C2"/>
<circle cx="44.6186" cy="65.9833" r="4.39889" fill="#C2C2C2"/>
<circle cx="64.727" cy="65.9833" r="4.39889" fill="#C2C2C2"/>
<circle cx="84.8354" cy="65.9833" r="4.39889" fill="#C2C2C2"/>
<circle cx="104.945" cy="65.9833" r="4.39889" fill="#C2C2C2"/>
<circle cx="125.056" cy="65.9833" r="4.39889" fill="#C2C2C2"/>
<circle cx="145.165" cy="65.9833" r="4.39889" fill="#C2C2C2"/>
<circle cx="165.273" cy="65.9833" r="4.39889" fill="#C2C2C2"/>
<circle cx="185.381" cy="65.9833" r="4.39889" fill="#C2C2C2"/>
<circle cx="205.493" cy="65.9833" r="4.39889" fill="#C2C2C2"/>
<circle cx="225.601" cy="65.9833" r="4.39889" fill="#C2C2C2"/>
<circle cx="4.39889" cy="86.0926" r="4.39889" fill="#C2C2C2"/>
<circle cx="24.5102" cy="86.0926" r="4.39889" fill="#C2C2C2"/>
<circle cx="44.6186" cy="86.0926" r="4.39889" fill="#C2C2C2"/>
<circle cx="64.727" cy="86.0926" r="4.39889" fill="#C2C2C2"/>
<circle cx="84.8354" cy="86.0926" r="4.39889" fill="#C2C2C2"/>
<circle cx="104.945" cy="86.0926" r="4.39889" fill="#C2C2C2"/>
<circle cx="125.056" cy="86.0926" r="4.39889" fill="#C2C2C2"/>
<circle cx="145.165" cy="86.0926" r="4.39889" fill="#C2C2C2"/>
<circle cx="165.273" cy="86.0926" r="4.39889" fill="#C2C2C2"/>
<circle cx="185.381" cy="86.0926" r="4.39889" fill="#C2C2C2"/>
<circle cx="205.493" cy="86.0926" r="4.39889" fill="#C2C2C2"/>
<circle cx="225.601" cy="86.0926" r="4.39889" fill="#C2C2C2"/>
<circle cx="4.39889" cy="106.202" r="4.39889" fill="#C2C2C2"/>
<circle cx="24.5102" cy="106.202" r="4.39889" fill="#C2C2C2"/>
<circle cx="44.6186" cy="106.202" r="4.39889" fill="#C2C2C2"/>
<circle cx="64.727" cy="106.202" r="4.39889" fill="#C2C2C2"/>
<circle cx="84.8354" cy="106.202" r="4.39889" fill="#C2C2C2"/>
<circle cx="104.945" cy="106.202" r="4.39889" fill="#C2C2C2"/>
<circle cx="125.056" cy="106.202" r="4.39889" fill="#C2C2C2"/>
<circle cx="145.165" cy="106.202" r="4.39889" fill="#C2C2C2"/>
<circle cx="165.273" cy="106.202" r="4.39889" fill="#C2C2C2"/>
<circle cx="185.381" cy="106.202" r="4.39889" fill="#C2C2C2"/>
<circle cx="205.493" cy="106.202" r="4.39889" fill="#C2C2C2"/>
<circle cx="225.601" cy="106.202" r="4.39889" fill="#C2C2C2"/>
<circle cx="4.39889" cy="125.054" r="4.39889" fill="#C2C2C2"/>
<circle cx="24.5102" cy="125.054" r="4.39889" fill="#C2C2C2"/>
<circle cx="44.6186" cy="125.054" r="4.39889" fill="#C2C2C2"/>
<circle cx="64.727" cy="125.054" r="4.39889" fill="#C2C2C2"/>
<circle cx="84.8354" cy="125.054" r="4.39889" fill="#C2C2C2"/>
<circle cx="104.945" cy="125.054" r="4.39889" fill="#C2C2C2"/>
<circle cx="125.056" cy="125.054" r="4.39889" fill="#C2C2C2"/>
<circle cx="145.165" cy="125.054" r="4.39889" fill="#C2C2C2"/>
<circle cx="165.273" cy="125.054" r="4.39889" fill="#C2C2C2"/>
<circle cx="185.381" cy="125.054" r="4.39889" fill="#C2C2C2"/>
<circle cx="205.493" cy="125.054" r="4.39889" fill="#C2C2C2"/>
<circle cx="225.601" cy="125.054" r="4.39889" fill="#C2C2C2"/>
<circle cx="4.39889" cy="145.163" r="4.39889" fill="#C2C2C2"/>
<circle cx="24.5102" cy="145.163" r="4.39889" fill="#C2C2C2"/>
<circle cx="44.6186" cy="145.163" r="4.39889" fill="#C2C2C2"/>
<circle cx="64.727" cy="145.163" r="4.39889" fill="#C2C2C2"/>
<circle cx="84.8354" cy="145.163" r="4.39889" fill="#C2C2C2"/>
<circle cx="104.945" cy="145.163" r="4.39889" fill="#C2C2C2"/>
<circle cx="125.056" cy="145.163" r="4.39889" fill="#C2C2C2"/>
<circle cx="145.165" cy="145.163" r="4.39889" fill="#C2C2C2"/>
<circle cx="165.273" cy="145.163" r="4.39889" fill="#C2C2C2"/>
<circle cx="185.381" cy="145.163" r="4.39889" fill="#C2C2C2"/>
<circle cx="205.493" cy="145.163" r="4.39889" fill="#C2C2C2"/>
<circle cx="225.601" cy="145.163" r="4.39889" fill="#C2C2C2"/>
<circle cx="4.39889" cy="165.273" r="4.39889" fill="#C2C2C2"/>
<circle cx="24.5102" cy="165.273" r="4.39889" fill="#C2C2C2"/>
<circle cx="44.6186" cy="165.273" r="4.39889" fill="#C2C2C2"/>
<circle cx="64.727" cy="165.273" r="4.39889" fill="#C2C2C2"/>
<circle cx="84.8354" cy="165.273" r="4.39889" fill="#C2C2C2"/>
<circle cx="104.945" cy="165.273" r="4.39889" fill="#C2C2C2"/>
<circle cx="125.056" cy="165.273" r="4.39889" fill="#C2C2C2"/>
<circle cx="145.165" cy="165.273" r="4.39889" fill="#C2C2C2"/>
<circle cx="165.273" cy="165.273" r="4.39889" fill="#C2C2C2"/>
<circle cx="185.381" cy="165.273" r="4.39889" fill="#C2C2C2"/>
<circle cx="205.493" cy="165.273" r="4.39889" fill="#C2C2C2"/>
<circle cx="225.601" cy="165.273" r="4.39889" fill="#C2C2C2"/>
</svg>
