<svg width="20" height="20" viewBox="0 0 20 20" fill="none" xmlns="http://www.w3.org/2000/svg">
<g clip-path="url(#clip0_0_25)">
<path d="M19.5461 17.994L14.5651 13.0131C16.9561 9.86257 16.7168 5.33957 13.8433 2.46612C12.3242 0.946747 10.3038 0.109894 8.15484 0.109894C6.00584 0.109894 3.9855 0.946747 2.46612 2.46612C0.946747 3.9855 0.109894 6.00584 0.109894 8.15484C0.109894 10.3036 0.946747 12.324 2.46612 13.8433C4.03445 15.4119 6.09454 16.196 8.15484 16.196C9.86894 16.196 11.5822 15.6512 13.0131 14.5651L17.994 19.5461C18.208 19.7606 18.4893 19.8677 18.7701 19.8677C19.0508 19.8677 19.3321 19.7606 19.5461 19.5461C19.9748 19.1176 19.9748 18.4225 19.5461 17.994ZM4.01865 12.2912C2.91353 11.1863 2.30521 9.71746 2.30521 8.15484C2.30521 6.59221 2.91353 5.12333 4.01865 4.01843C5.12333 2.91353 6.59243 2.30521 8.15484 2.30521C9.71724 2.30521 11.1863 2.91353 12.2912 4.01865C14.572 6.29936 14.572 10.0105 12.2912 12.2915C10.0103 14.5722 6.29914 14.5717 4.01865 12.2912Z" fill="#F4F4F4"/>
</g>
<defs>
<clipPath id="clip0_0_25">
<rect width="20" height="20" fill="white"/>
</clipPath>
</defs>
</svg>
