<svg width="30" height="30" viewBox="0 0 30 30" fill="none" xmlns="http://www.w3.org/2000/svg">
<g clip-path="url(#clip0_298_196)">
<path d="M29.3192 26.991L21.8477 19.5196C25.4341 14.7939 25.0752 8.00937 20.765 3.6992C18.4863 1.42014 15.4558 0.164856 12.2323 0.164856C9.00878 0.164856 5.97826 1.42014 3.6992 3.6992C1.42014 5.97826 0.164856 9.00878 0.164856 12.2323C0.164856 15.4554 1.42014 18.4859 3.6992 20.765C6.0517 23.1178 9.14182 24.2941 12.2323 24.2941C14.8034 24.2941 17.3733 23.4768 19.5196 21.8477L26.991 29.3192C27.3121 29.6409 27.7339 29.8016 28.1551 29.8016C28.5763 29.8016 28.9981 29.6409 29.3192 29.3192C29.9623 28.6764 29.9623 27.6338 29.3192 26.991ZM6.02799 18.4369C4.37031 16.7795 3.45782 14.5762 3.45782 12.2323C3.45782 9.88833 4.37031 7.68501 6.02799 6.02766C7.68501 4.37031 9.88866 3.45782 12.2323 3.45782C14.5759 3.45782 16.7795 4.37031 18.4369 6.02799C21.8579 9.44905 21.8579 15.0158 18.4369 18.4372C15.0155 21.8583 9.44872 21.8576 6.02799 18.4369Z" fill="white"/>
</g>
<defs>
<clipPath id="clip0_298_196">
<rect width="30" height="30" fill="white"/>
</clipPath>
</defs>
</svg>
