<svg width="25" height="25" viewBox="0 0 25 25" fill="none" xmlns="http://www.w3.org/2000/svg">
<path d="M14.4722 25H10.5278C9.73139 25 9.08333 24.3519 9.08333 23.5556V22.9683C9.08333 22.8769 9.03028 22.7922 8.95722 22.7669C8.54556 22.625 8.13639 22.4553 7.74194 22.2625C7.67361 22.2297 7.58194 22.2497 7.51917 22.3125L7.09806 22.7336C6.82556 23.0064 6.4625 23.1567 6.07667 23.1567C5.69083 23.1567 5.32806 23.0064 5.05528 22.7333L2.26667 19.9442C1.70361 19.3811 1.70361 18.4647 2.26667 17.9014L2.68778 17.4803C2.74972 17.4183 2.77083 17.3247 2.73806 17.2581C2.545 16.8628 2.375 16.4539 2.23306 16.0422C2.2075 15.9694 2.12306 15.9167 2.03167 15.9167H1.44444C0.648056 15.9167 0 15.2686 0 14.4722V10.5278C0 9.73139 0.648056 9.08333 1.44444 9.08333H2.03194C2.12333 9.08333 2.20778 9.03056 2.23306 8.95722C2.37556 8.54528 2.54528 8.13611 2.73778 7.74222C2.77111 7.67389 2.75056 7.58222 2.6875 7.51944L2.26667 7.09861C1.70361 6.53528 1.70361 5.61889 2.26667 5.05583L5.05583 2.26639C5.32861 1.99361 5.69139 1.84361 6.07722 1.84361C6.46306 1.84361 6.82583 1.99389 7.09861 2.26639L7.51972 2.68778C7.58194 2.74972 7.675 2.77111 7.74222 2.73778C8.13611 2.54528 8.54528 2.37528 8.9575 2.23278C9.03056 2.2075 9.08333 2.12306 9.08333 2.03167V1.44444C9.08333 0.648056 9.73139 0 10.5278 0H14.4722C15.2686 0 15.9167 0.648056 15.9167 1.44444V2.03194C15.9167 2.12333 15.9694 2.20778 16.0425 2.23306C16.4542 2.37528 16.8631 2.54528 17.2578 2.73806C17.3264 2.77083 17.4175 2.75056 17.4806 2.68778L17.9017 2.26667C18.4647 1.70361 19.3811 1.70361 19.9444 2.26667L22.7333 5.05556C23.2964 5.61889 23.2964 6.53528 22.7333 7.09833L22.3122 7.51944C22.2492 7.5825 22.2286 7.67389 22.2619 7.74222C22.455 8.13667 22.625 8.54583 22.7669 8.95778C22.7919 9.03056 22.8767 9.08333 22.9681 9.08333H23.5556C24.3519 9.08333 25 9.73139 25 10.5278V14.4722C25 15.2686 24.3519 15.9167 23.5556 15.9167H22.9683C22.8769 15.9167 22.7922 15.9694 22.7669 16.0428C22.6253 16.4533 22.4556 16.8622 22.2628 17.2575C22.2297 17.3253 22.2506 17.4186 22.3125 17.4806L22.7336 17.9017C23.2967 18.4647 23.2967 19.3811 22.7336 19.9444L19.9442 22.7333C19.6714 23.0061 19.3086 23.1564 18.9228 23.1564C18.5367 23.1564 18.1739 23.0058 17.9011 22.7328L17.4806 22.3125C17.4172 22.2497 17.3258 22.2286 17.2575 22.2619C16.8631 22.455 16.4539 22.625 16.0419 22.7669C15.9692 22.7919 15.9164 22.8767 15.9164 22.9681V23.5556C15.9167 24.3519 15.2686 25 14.4722 25ZM11.0278 23.0556H13.9722V22.9683C13.9722 22.0456 14.5489 21.2261 15.4075 20.9294C15.7453 20.8128 16.0803 20.6736 16.4042 20.5153C17.2197 20.1169 18.2044 20.2869 18.8553 20.9378L18.9228 21.005L21.0047 18.9231L20.9375 18.8556C20.2861 18.2044 20.1167 17.2192 20.5156 16.4042C20.6736 16.0803 20.8128 15.745 20.9289 15.4083C21.2256 14.5492 22.0453 13.9725 22.9681 13.9725H23.0556V11.0278H22.9683C22.0456 11.0278 21.2261 10.4511 20.9294 9.5925C20.8128 9.25472 20.6736 8.91972 20.5153 8.59583C20.1169 7.78028 20.2867 6.79528 20.9378 6.14444L21.005 6.07694L18.9231 3.995L18.8556 4.0625C18.2044 4.71361 17.2194 4.88278 16.4044 4.48472C16.0806 4.32639 15.7453 4.18722 15.4081 4.07056C14.5494 3.77417 13.9725 2.95472 13.9725 2.03167V1.94444H11.0278V2.03167C11.0278 2.95472 10.4508 3.77389 9.59222 4.07056C9.25417 4.18722 8.91889 4.32667 8.59583 4.48472C7.78028 4.88306 6.79556 4.71333 6.14444 4.0625L6.07694 3.995L3.995 6.07694L4.0625 6.14444C4.71333 6.79556 4.88306 7.78056 4.48472 8.59583C4.32694 8.91889 4.1875 9.25417 4.07083 9.59222C3.77417 10.4511 2.95472 11.0278 2.03194 11.0278H1.94444V13.9722H2.03167C2.95472 13.9722 3.77389 14.5492 4.07056 15.4078C4.18694 15.745 4.32639 16.0803 4.48472 16.4044C4.88333 17.2192 4.71361 18.2042 4.0625 18.8553L3.995 18.9228L6.07722 21.0047L6.14444 20.9375C6.79556 20.2858 7.78083 20.1169 8.59611 20.5153C8.91944 20.6731 9.25444 20.8125 9.59194 20.9289C10.4508 21.2256 11.0275 22.0453 11.0275 22.9681L11.0278 23.0556ZM12.5078 19.5561C10.6361 19.5561 8.84 18.8194 7.51028 17.4897C6.04778 16.0272 5.30278 14.0006 5.46611 11.9297C5.73556 8.51417 8.51445 5.73528 11.93 5.46583C14.0014 5.3025 16.0275 6.04778 17.49 7.51C18.9525 8.97278 19.6975 10.9992 19.5344 13.0703C19.2647 16.4861 16.4858 19.2647 13.0703 19.5342C12.8822 19.5489 12.6947 19.5561 12.5078 19.5561ZM12.4914 7.38833C12.3556 7.38833 12.2194 7.39389 12.0828 7.40444C9.61083 7.59944 7.59944 9.61083 7.40444 12.0831C7.28583 13.5858 7.82556 15.0553 8.88528 16.115C9.945 17.1747 11.4131 17.7153 12.9175 17.5958C15.3894 17.4011 17.4011 15.39 17.5961 12.9175C17.7147 11.4147 17.1747 9.945 16.1153 8.88528C15.1517 7.92194 13.8492 7.38833 12.4914 7.38833Z" fill="#F4F4F4"/>
</svg>
