<svg width="65" height="65" viewBox="0 0 65 65" fill="none" xmlns="http://www.w3.org/2000/svg">
<g clip-path="url(#clip0_488_837)">
<path d="M32.4636 0.357178C14.7316 0.357178 0.357147 14.7316 0.357147 32.4636C0.357147 50.1957 14.7316 64.5701 32.4636 64.5701C50.1956 64.5701 64.57 50.1957 64.57 32.4636C64.57 14.7316 50.1956 0.357178 32.4636 0.357178ZM32.4636 16.0587C38.8128 16.0587 43.9791 21.2249 43.9791 27.5742C43.9791 33.9241 38.8128 39.0897 32.4636 39.0897C26.1137 39.0897 20.9481 33.9241 20.9481 27.5742C20.9481 21.2249 26.1137 16.0587 32.4636 16.0587ZM32.4636 60.1772C24.519 60.1772 17.3928 56.6919 12.5169 51.171C14.7836 47.0685 18.3275 43.6966 22.5413 41.6525C23.9746 40.9576 25.6477 40.969 27.1325 41.6817C28.8042 42.4851 30.5978 42.8918 32.4643 42.8918C34.33 42.8918 36.1244 42.4844 37.7961 41.6817C39.2823 40.9683 40.9554 40.9576 42.3873 41.6525C46.6011 43.6959 50.1443 47.0685 52.411 51.171C47.5344 56.6911 40.4082 60.1772 32.4636 60.1772Z" fill="#373737"/>
</g>
<defs>
<clipPath id="clip0_488_837">
<rect width="65" height="65" fill="white"/>
</clipPath>
</defs>
</svg>
