<svg width="48" height="49" viewBox="0 0 48 49" fill="none" xmlns="http://www.w3.org/2000/svg">
<path fill-rule="evenodd" clip-rule="evenodd" d="M17.4038 17.644C12.3148 21.446 13.0208 29.394 16.0238 31.79C15.5058 33.352 15.7828 34.825 16.1808 36.084C11.4188 32.622 8.41776 26.103 8.60176 23.31C9.19976 24 10.0058 24.315 10.8338 24.055C2.18076 18.04 2.28076 9.78499 2.89376 6.31799C5.10376 12.517 13.9568 16.334 17.4038 17.644ZM31.3708 25.409C31.3708 27.3297 30.6078 29.1717 29.2496 30.5299C27.8915 31.888 26.0495 32.651 24.1288 32.651C22.2081 32.651 20.366 31.888 19.0079 30.5299C17.6498 29.1717 16.8868 27.3297 16.8868 25.409C16.8868 23.4883 17.6498 21.6463 19.0079 20.2881C20.366 18.93 22.2081 18.167 24.1288 18.167C26.0495 18.167 27.8915 18.93 29.2496 20.2881C30.6078 21.6463 31.3708 23.4883 31.3708 25.409ZM32.1108 31.79C35.1128 29.394 35.8188 21.446 30.7298 17.644C34.1768 16.334 43.0298 12.517 45.2398 6.31799C45.8528 9.78599 45.9528 18.04 37.2998 24.055C38.1278 24.315 38.9328 24.001 39.5318 23.311C39.7158 26.103 36.7148 32.622 31.9518 36.084C32.3518 34.825 32.6268 33.352 32.1108 31.79Z" fill="#80989D"/>
</svg>
