<svg width="48" height="48" viewBox="0 0 48 48" fill="none" xmlns="http://www.w3.org/2000/svg">
<path fill-rule="evenodd" clip-rule="evenodd" d="M32.1971 33.209C34.2671 30.426 36.7471 23.416 30.7401 18.29C34.3761 16.91 42.5461 12.938 45.4971 7.44997C46.0151 10.653 44.6231 20.2 36.9221 24.892C38.0461 25.062 38.4831 24.997 39.6081 24.342C39.2301 27.028 37.2191 33.312 32.1971 36.962C32.4881 35.312 32.4561 34.827 32.1971 33.209ZM17.3101 18.29C11.3041 23.416 13.7831 30.426 15.8541 33.209C15.5941 34.827 15.5631 35.312 15.8541 36.963C10.8311 33.313 8.82112 27.028 8.44412 24.342C9.56812 24.997 10.0041 25.062 11.1291 24.892C3.42712 20.2 2.03612 10.653 2.55312 7.44897C5.50512 12.938 13.6751 16.909 17.3101 18.29ZM31.4521 26.575C31.4521 27.5609 31.2579 28.5373 30.8806 29.4482C30.5033 30.3591 29.9503 31.1868 29.2531 31.8839C28.5559 32.5811 27.7282 33.1341 26.8173 33.5115C25.9064 33.8888 24.9301 34.083 23.9441 34.083C22.9582 34.083 21.9818 33.8888 21.0709 33.5115C20.16 33.1341 19.3323 32.5811 18.6352 31.8839C17.938 31.1868 17.3849 30.3591 17.0076 29.4482C16.6303 28.5373 16.4361 27.5609 16.4361 26.575C16.4361 24.5837 17.2271 22.674 18.6352 21.266C20.0432 19.858 21.9529 19.067 23.9441 19.067C25.9354 19.067 27.8451 19.858 29.2531 21.266C30.6611 22.674 31.4521 24.5837 31.4521 26.575Z" fill="#8C513A"/>
</svg>
