<svg width="45" height="45" viewBox="0 0 45 45" fill="none" xmlns="http://www.w3.org/2000/svg">
<path d="M22.4435 32.505C19.3478 32.505 16.8382 29.9954 16.8382 26.8997C16.8382 23.804 19.3478 21.2944 22.4435 21.2944C25.5392 21.2944 28.0488 23.804 28.0488 26.8997C28.0488 29.9954 25.5392 32.505 22.4435 32.505Z" fill="#3FBFDD"/>
<path fill-rule="evenodd" clip-rule="evenodd" d="M27.8193 20.3822C30.7443 17.2791 36.3711 9.6225 35.4805 3.81375C36.8755 6.4275 39.1771 11.6981 38.1524 15.6169C37.9302 16.4679 37.6823 17.3121 37.409 18.1481C37.0049 19.4072 36.8586 19.8619 36.9946 21.495C38.3755 19.9959 41.1365 16.2403 41.1365 13.2113C42.3693 15.7209 43.8983 22.6987 40.1568 30.5362C36.4302 31.1456 28.3274 34.0378 25.7268 40.7363L23.9896 35.4806C25.8749 34.9022 29.8152 32.6569 30.4921 28.3106C31.169 23.9634 28.9911 21.2138 27.8193 20.3822ZM17.0671 20.3822C14.1421 17.2791 8.51614 9.6225 9.40676 3.81375C8.01083 6.4275 5.70926 11.6981 6.73489 15.6169C6.95675 16.4679 7.20437 17.3121 7.47739 18.1481C7.88239 19.4072 8.02864 19.8619 7.8927 21.495C6.51176 19.9969 3.74989 16.2413 3.74989 13.2122C2.51802 15.7219 0.988953 22.6997 4.72958 30.5372C8.45614 31.1466 16.559 34.0387 19.1605 40.7372L20.8977 35.4816C19.0115 34.9031 15.0721 32.6578 14.3952 28.3116C13.7174 23.9644 15.8943 21.2138 17.0671 20.3822Z" fill="#F4C874"/>
</svg>
