<svg width="41" height="33" viewBox="0 0 41 33" fill="none" xmlns="http://www.w3.org/2000/svg">
<path fill-rule="evenodd" clip-rule="evenodd" d="M40.613 0C39.7582 5.02825 31.5349 10.0684 27.5314 11.9607C30.2744 15.2534 30.3835 22.2304 26.3524 25.414C23.1269 27.9608 22.9796 30.5355 23.2262 33C25.2009 28.1275 28.0894 26.4018 29.9453 25.414C30.2469 26.7985 29.7262 28.4508 29.287 29.152C33.6964 26.8927 37.2942 19.5457 37.2942 16.9711C36.3677 18.1354 35.2379 18.309 34.6808 18.3943L34.5796 18.4101C34.5796 17.2756 34.7722 15.8077 37.4593 13.1776C40.4165 10.2836 41.7104 4.43022 40.613 0ZM13.9506 18.2009C13.9506 19.9149 14.6252 21.5588 15.8258 22.7708C17.0265 23.9828 18.6549 24.6637 20.3529 24.6637C22.0509 24.6637 23.6794 23.9828 24.88 22.7708C26.0807 21.5588 26.7552 19.9149 26.7552 18.2009C26.7552 16.4868 26.0807 14.843 24.88 13.631C23.6794 12.4189 22.0509 11.738 20.3529 11.738C18.6549 11.738 17.0265 12.4189 15.8258 13.631C14.6252 14.843 13.9506 16.4868 13.9506 18.2009ZM13.4692 11.9597C9.46465 10.0684 1.24233 5.02726 0.3866 0C-0.70984 4.42922 0.583093 10.2836 3.54034 13.1776C6.22838 15.8077 6.41997 17.2756 6.41997 18.4101L6.31975 18.3943C5.76171 18.309 4.63285 18.1364 3.70539 16.9701C3.70539 19.5447 7.30321 26.8927 11.7126 29.152C11.2744 28.4508 10.7537 26.7985 11.0543 25.414C12.9112 26.4018 15.7996 28.1275 17.7744 33C18.02 30.5355 17.8727 27.9618 14.6482 25.414C10.6161 22.2304 10.7261 15.2543 13.4692 11.9597Z" fill="#8141EB"/>
</svg>
