<svg width="48" height="48" viewBox="0 0 48 48" fill="none" xmlns="http://www.w3.org/2000/svg">
<path fill-rule="evenodd" clip-rule="evenodd" d="M3.28604 7.07397C4.17204 12.232 12.686 17.402 16.832 19.343C13.992 22.723 13.878 29.878 18.053 33.144C21.393 35.757 21.546 38.398 21.291 40.926C19.246 35.928 16.254 34.157 14.333 33.144C14.02 34.564 14.56 36.259 15.014 36.978C10.448 34.661 6.72204 27.124 6.72204 24.483C7.68204 25.678 8.85204 25.856 9.42904 25.943L9.53304 25.959C9.53304 24.795 9.33504 23.29 6.55104 20.592C3.48804 17.622 2.15004 11.618 3.28604 7.07397ZM30.723 25.846C30.723 26.7074 30.5534 27.5605 30.2237 28.3564C29.894 29.1523 29.4108 29.8754 28.8017 30.4846C28.1925 31.0937 27.4693 31.577 26.6734 31.9066C25.8776 32.2363 25.0245 32.406 24.163 32.406C23.3016 32.406 22.4485 32.2363 21.6526 31.9066C20.8567 31.577 20.1336 31.0937 19.5244 30.4846C18.9153 29.8754 18.4321 29.1523 18.1024 28.3564C17.7727 27.5605 17.603 26.7074 17.603 25.846C17.603 24.1062 18.2942 22.4376 19.5244 21.2074C20.7547 19.9771 22.4232 19.286 24.163 19.286C25.9029 19.286 27.5714 19.9771 28.8017 21.2074C30.0319 22.4376 30.723 24.1062 30.723 25.846ZM31.281 19.343C35.427 17.402 43.941 12.232 44.827 7.07397C45.963 11.618 44.624 17.623 41.561 20.592C38.778 23.29 38.579 24.795 38.579 25.959L38.683 25.943C39.261 25.856 40.43 25.678 41.391 24.483C41.391 27.123 37.665 34.661 33.098 36.978C33.553 36.258 34.092 34.564 33.78 33.144C31.858 34.157 28.867 35.928 26.822 40.926C26.567 38.398 26.72 35.757 30.06 33.144C34.234 29.879 34.121 22.722 31.281 19.343Z" fill="#519847"/>
</svg>
