<svg width="48" height="48" viewBox="0 0 48 48" fill="none" xmlns="http://www.w3.org/2000/svg">
<path fill-rule="evenodd" clip-rule="evenodd" d="M15.7808 32.79C11.5828 26.301 14.9658 20.281 17.1518 18.254C8.9948 16.202 4.1518 10.268 2.7808 7.38501C2.2558 16.02 8.3658 22.791 11.4868 25.097C10.1898 25.335 9.1618 24.64 8.6848 24.202C8.8278 28.687 13.4748 34.38 15.7808 36.666V32.79ZM31.3448 26.379C31.3448 28.2689 30.594 30.0815 29.2576 31.4179C27.9213 32.7542 26.1087 33.505 24.2188 33.505C22.3289 33.505 20.5163 32.7542 19.18 31.4179C17.8436 30.0815 17.0928 28.2689 17.0928 26.379C17.0928 24.4891 17.8436 22.6765 19.18 21.3402C20.5163 20.0038 22.3289 19.253 24.2188 19.253C26.1087 19.253 27.9213 20.0038 29.2576 21.3402C30.594 22.6765 31.3448 24.4891 31.3448 26.379ZM30.8368 18.254C33.0228 20.281 36.4068 26.301 32.2088 32.789V36.666C34.5138 34.38 39.1618 28.686 39.3048 24.202C38.8278 24.64 37.7988 25.335 36.5018 25.097C39.6228 22.791 45.7328 16.02 45.2088 7.38601C43.8368 10.268 38.9948 16.202 30.8368 18.254Z" fill="#51484A"/>
</svg>
