<svg width="48" height="48" viewBox="0 0 48 48" fill="none" xmlns="http://www.w3.org/2000/svg">
<path d="M24.3359 34.677C27.638 34.677 30.3149 32.0001 30.3149 28.698C30.3149 25.3959 27.638 22.719 24.3359 22.719C21.0338 22.719 18.3569 25.3959 18.3569 28.698C18.3569 32.0001 21.0338 34.677 24.3359 34.677Z" fill="#CD4545"/>
<path fill-rule="evenodd" clip-rule="evenodd" d="M17.9538 21.927C14.8338 18.617 8.83282 10.449 9.78282 4.254C8.29382 7.041 5.83882 12.664 6.93182 16.844C7.25582 18.084 7.52182 18.909 7.72482 19.544C8.15682 20.887 8.31182 21.372 8.16682 23.114C6.69482 21.515 3.74882 17.509 3.74882 14.278C2.43482 16.955 0.803817 24.398 4.79382 32.758C8.76882 33.408 17.4118 36.493 20.1868 43.638L22.0388 38.032C20.0288 37.414 15.8248 35.02 15.1028 30.383C14.3808 25.747 16.7028 22.813 17.9528 21.927H17.9538ZM30.1498 21.927C33.2698 18.617 39.2718 10.449 38.3218 4.254C39.8098 7.041 42.2648 12.664 41.1718 16.844C40.9348 17.7518 40.6704 18.6522 40.3788 19.544C39.9478 20.887 39.7918 21.372 39.9368 23.114C41.4098 21.515 44.3548 17.509 44.3548 14.278C45.6698 16.955 47.3008 24.398 43.3098 32.758C39.3348 33.408 30.6918 36.493 27.9178 43.638L26.0648 38.032C28.0758 37.414 32.2788 35.02 33.0008 30.383C33.7228 25.747 31.3998 22.813 30.1498 21.927Z" fill="#756572"/>
<path fill-rule="evenodd" clip-rule="evenodd" d="M17.9538 21.927C14.8338 18.617 8.83282 10.449 9.78282 4.254C8.29382 7.041 5.83882 12.664 6.93182 16.844C7.25582 18.084 7.52182 18.909 7.72482 19.544C8.15682 20.887 8.31182 21.372 8.16682 23.114C6.69482 21.515 3.74882 17.509 3.74882 14.278C2.43482 16.955 0.803817 24.398 4.79382 32.758C8.76882 33.408 17.4118 36.493 20.1868 43.638L22.0388 38.032C20.0288 37.414 15.8248 35.02 15.1028 30.383C14.3808 25.747 16.7028 22.813 17.9528 21.927H17.9538ZM30.1498 21.927C33.2698 18.617 39.2718 10.449 38.3218 4.254C39.8098 7.041 42.2648 12.664 41.1718 16.844C40.9348 17.7518 40.6704 18.6522 40.3788 19.544C39.9478 20.887 39.7918 21.372 39.9368 23.114C41.4098 21.515 44.3548 17.509 44.3548 14.278C45.6698 16.955 47.3008 24.398 43.3098 32.758C39.3348 33.408 30.6918 36.493 27.9178 43.638L26.0648 38.032C28.0758 37.414 32.2788 35.02 33.0008 30.383C33.7228 25.747 31.3998 22.813 30.1498 21.927Z" fill="#756572"/>
</svg>
