<svg width="48" height="48" viewBox="0 0 48 48" fill="none" xmlns="http://www.w3.org/2000/svg">
<path d="M24.02 34.724C27.3221 34.724 29.999 32.0471 29.999 28.745C29.999 25.4429 27.3221 22.766 24.02 22.766C20.7179 22.766 18.041 25.4429 18.041 28.745C18.041 32.0471 20.7179 34.724 24.02 34.724Z" fill="#9E4AE0"/>
<path fill-rule="evenodd" clip-rule="evenodd" d="M18.137 21.968C15.087 18.731 9.21701 10.743 10.147 4.685C8.69001 7.411 6.29001 12.908 7.35801 16.997C7.58966 17.8846 7.84811 18.765 8.13301 19.637C8.55501 20.95 8.70801 21.425 8.56601 23.129C7.12601 21.565 4.24601 17.647 4.24601 14.488C2.96001 17.105 1.36501 24.383 5.26701 32.56C9.15401 33.195 17.607 36.211 20.32 43.199L22.131 37.717C20.165 37.113 16.055 34.771 15.349 30.237C14.642 25.703 16.913 22.835 18.136 21.967L18.137 21.968ZM29.937 21.968C32.988 18.731 38.857 10.743 37.928 4.685C39.384 7.411 41.784 12.908 40.716 16.997C40.484 17.8846 40.2252 18.765 39.94 19.637C39.518 20.95 39.366 21.425 39.508 23.129C40.948 21.565 43.828 17.647 43.828 14.488C45.114 17.105 46.708 24.383 42.806 32.56C38.919 33.195 30.467 36.211 27.754 43.199L25.942 37.717C27.909 37.113 32.019 34.771 32.725 30.237C33.431 25.703 31.161 22.835 29.937 21.967V21.968Z" fill="#A4584E"/>
</svg>
