<svg width="48" height="48" viewBox="0 0 48 48" fill="none" xmlns="http://www.w3.org/2000/svg">
<path fill-rule="evenodd" clip-rule="evenodd" d="M3.0088 7.492C3.8898 12.622 12.3598 17.766 16.4848 19.697C13.6598 23.058 13.5458 30.177 17.6988 33.427C21.0208 36.026 21.1738 38.653 20.9188 41.167C18.8858 36.195 15.9098 34.434 13.9988 33.427C13.6868 34.839 14.2238 36.525 14.6758 37.24C10.1338 34.935 6.4268 27.437 6.4268 24.81C7.3828 25.999 8.5458 26.176 9.1198 26.263L9.2238 26.279C9.2238 25.121 9.0258 23.624 6.2578 20.939C3.2108 17.986 1.8778 12.012 3.0088 7.492ZM30.7508 25.94C30.7508 27.7008 30.0513 29.3894 28.8063 30.6345C27.5612 31.8795 25.8726 32.579 24.1118 32.579C22.351 32.579 20.6624 31.8795 19.4173 30.6345C18.1723 29.3894 17.4728 27.7008 17.4728 25.94C17.4728 24.1792 18.1723 22.4906 19.4173 21.2455C20.6624 20.0005 22.351 19.301 24.1118 19.301C25.8726 19.301 27.5612 20.0005 28.8063 21.2455C30.0513 22.4906 30.7508 24.1792 30.7508 25.94ZM31.4228 19.697C35.5478 17.767 44.0168 12.623 44.8988 7.492C46.0288 12.012 44.6968 17.986 41.6488 20.94C38.8808 23.624 38.6828 25.12 38.6828 26.28L38.7868 26.263C39.3618 26.176 40.5248 25.999 41.4798 24.81C41.4798 27.437 37.7738 34.935 33.2308 37.24C33.6828 36.525 34.2198 34.84 33.9088 33.427C31.9968 34.434 29.0218 36.195 26.9878 41.167C26.7328 38.653 26.8858 36.026 30.2078 33.427C34.3608 30.177 34.2478 23.059 31.4228 19.697Z" fill="#CD8837"/>
</svg>
